<svg width="65" height="65" viewBox="0 0 65 65" fill="none" xmlns="http://www.w3.org/2000/svg">
<path d="M26.5001 42.8941L43.2692 32.1249L26.5001 21.3558V42.8941ZM11.9873 52.1249C10.6403 52.1249 9.50008 51.6582 8.56675 50.7249C7.63341 49.7915 7.16675 48.6514 7.16675 47.3043V16.9455C7.16675 15.5985 7.63341 14.4583 8.56675 13.525C9.50008 12.5917 10.6403 12.125 11.9873 12.125H53.0128C54.3598 12.125 55.5 12.5917 56.4333 13.525C57.3666 14.4583 57.8333 15.5985 57.8333 16.9455V47.3043C57.8333 48.6514 57.3666 49.7915 56.4333 50.7249C55.5 51.6582 54.3598 52.1249 53.0128 52.1249H11.9873Z" fill="#fff"></path>
</svg>