<svg width="48" height="48" viewBox="0 0 48 48" fill="none" xmlns="http://www.w3.org/2000/svg">
<path d="M24 43.1538C22.9898 43.1538 22.1186 42.8038 21.3866 42.1038C20.6545 41.4038 20.2564 40.5487 20.1923 39.5384H27.8077C27.7436 40.5487 27.3455 41.4038 26.6135 42.1038C25.8814 42.8038 25.0102 43.1538 24 43.1538ZM16.5001 36.7691V33.7692H31.5V36.7691H16.5001ZM16.8077 30.9999C14.7129 29.6974 13.0546 27.9955 11.8328 25.8942C10.611 23.7929 10.0001 21.4949 10.0001 19C10.0001 15.1026 11.359 11.7949 14.077 9.07695C16.7949 6.35901 20.1026 5.00005 24 5.00005C27.8974 5.00005 31.2051 6.35901 33.9231 9.07695C36.641 11.7949 38 15.1026 38 19C38 21.4949 37.3891 23.7929 36.1673 25.8942C34.9455 27.9955 33.2871 29.6974 31.1923 30.9999H16.8077Z" fill="#F1F1F1"/>
</svg>
