<svg width="338" height="185" viewBox="0 0 338 185" fill="none" xmlns="http://www.w3.org/2000/svg">
<g clip-path="url(#clip0_147_26)">
<path d="M216.513 123.159C214.793 123.159 213.465 122.776 212.524 122C211.584 121.23 211.104 120.126 211.095 118.691H213.46C213.47 119.591 213.742 120.237 214.267 120.629C214.793 121.022 215.567 121.216 216.586 121.216C217.416 121.216 218.048 121.059 218.486 120.745C218.924 120.431 219.145 119.979 219.145 119.383C219.145 118.884 218.961 118.506 218.587 118.243C218.214 117.984 217.536 117.749 216.554 117.55L215.489 117.338C212.778 116.83 211.422 115.547 211.422 113.497C211.422 112.408 211.837 111.54 212.667 110.889C213.497 110.243 214.645 109.92 216.116 109.92C217.785 109.92 219.053 110.275 219.911 110.986C220.768 111.697 221.22 112.694 221.271 113.973H218.942C218.896 113.248 218.656 112.717 218.223 112.371C217.79 112.03 217.103 111.854 216.153 111.854C215.42 111.854 214.857 111.993 214.465 112.265C214.073 112.537 213.88 112.925 213.88 113.424C213.88 113.922 214.06 114.324 214.419 114.596C214.779 114.868 215.424 115.099 216.347 115.289L217.448 115.501C218.928 115.796 219.998 116.239 220.657 116.826C221.317 117.412 221.644 118.224 221.644 119.254C221.644 120.486 221.192 121.446 220.293 122.125C219.394 122.808 218.135 123.15 216.526 123.15L216.513 123.159Z" fill="#0A0A0A"/>
<path d="M227.832 110.211H238.348V112.362H234.296V122.878H231.88V112.362H227.827V110.211H227.832Z" fill="#0A0A0A"/>
<path d="M250.769 123.145C249.123 123.145 247.828 122.702 246.887 121.821C245.947 120.939 245.477 119.702 245.477 118.109V110.211H247.874V118.128C247.874 119.088 248.123 119.817 248.621 120.316C249.119 120.814 249.834 121.064 250.769 121.064C251.705 121.064 252.42 120.814 252.918 120.316C253.416 119.817 253.665 119.088 253.665 118.128V110.211H256.062V118.109C256.062 119.72 255.592 120.967 254.661 121.834C253.725 122.707 252.429 123.141 250.769 123.141V123.145Z" fill="#0A0A0A"/>
<path d="M264.168 110.211H269C271.024 110.211 272.592 110.774 273.689 111.9C274.791 113.041 275.34 114.587 275.34 116.544C275.34 118.502 274.791 120.043 273.689 121.17C272.587 122.31 271.024 122.878 269 122.878H264.168V110.211ZM266.566 120.814H268.963C270.208 120.814 271.167 120.45 271.84 119.72C272.513 118.991 272.854 117.934 272.854 116.544C272.854 115.155 272.518 114.098 271.84 113.368C271.162 112.639 270.203 112.274 268.963 112.274H266.566V120.814Z" fill="#0A0A0A"/>
<path d="M285.506 122.878H283.108V110.211H285.506V122.878Z" fill="#0A0A0A"/>
<path d="M299.596 123.159C297.701 123.159 296.175 122.555 295.013 121.345C293.851 120.122 293.27 118.525 293.27 116.544C293.27 114.564 293.851 112.962 295.013 111.739C296.175 110.53 297.701 109.925 299.596 109.925C301.491 109.925 303.022 110.53 304.179 111.739C305.327 112.939 305.903 114.536 305.903 116.544C305.903 118.552 305.327 120.15 304.179 121.345C303.017 122.555 301.491 123.159 299.596 123.159ZM295.778 116.544C295.778 117.929 296.129 119.028 296.825 119.836C297.526 120.644 298.448 121.045 299.596 121.045C300.744 121.045 301.689 120.644 302.385 119.836C303.072 119.042 303.418 117.943 303.418 116.544C303.418 115.146 303.072 114.047 302.385 113.253C301.685 112.445 300.758 112.044 299.596 112.044C298.434 112.044 297.521 112.445 296.825 113.253C296.129 114.061 295.778 115.155 295.778 116.544Z" fill="#0A0A0A"/>
<path d="M218.661 132.946L220.049 130.67H222.695L217.951 138.337V143.337H215.553V138.337L210.772 130.67H213.493L214.894 132.964C216.033 134.861 216.665 135.928 216.794 136.168C217.112 135.6 217.734 134.524 218.661 132.946Z" fill="#0A0A0A"/>
<path d="M239.045 130.67V132.821H232.115V135.807H238.39V137.871H232.115V141.181H239.008V143.332H229.713V130.665H239.04L239.045 130.67Z" fill="#0A0A0A"/>
<path d="M249.133 130.67V141.186H255.159V143.337H246.735V130.67H249.133Z" fill="#0A0A0A"/>
<path d="M265.09 130.67V141.186H271.116V143.337H262.693V130.67H265.09Z" fill="#0A0A0A"/>
<path d="M283.445 143.618C281.55 143.618 280.019 143.014 278.862 141.804C277.7 140.581 277.119 138.984 277.119 137.003C277.119 135.023 277.7 133.421 278.862 132.198C280.024 130.989 281.55 130.384 283.445 130.384C285.34 130.384 286.866 130.989 288.028 132.198C289.176 133.398 289.752 134.995 289.752 137.003C289.752 139.011 289.176 140.609 288.028 141.804C286.866 143.014 285.34 143.618 283.445 143.618ZM279.627 137.003C279.627 138.388 279.978 139.487 280.674 140.295C281.37 141.103 282.297 141.504 283.445 141.504C284.593 141.504 285.534 141.103 286.234 140.295C286.921 139.501 287.263 138.402 287.263 137.003C287.263 135.605 286.917 134.506 286.234 133.712C285.534 132.904 284.607 132.503 283.445 132.503C282.283 132.503 281.37 132.904 280.674 133.712C279.973 134.52 279.627 135.614 279.627 137.003Z" fill="#0A0A0A"/>
<path d="M309.477 135.775L310.809 130.67H313.299L309.799 143.337H307.098L305.747 138.07C305.189 135.757 304.848 134.261 304.714 133.587C304.382 135.166 304.041 136.657 303.681 138.07L302.33 143.337H299.647L296.129 130.67H298.632L299.946 135.775C300.564 138.24 300.947 139.847 301.104 140.595C301.482 138.817 301.846 137.202 302.187 135.757L303.483 130.67H305.954L307.25 135.757C307.582 137.109 307.937 138.73 308.315 140.613C308.564 139.51 308.946 137.899 309.472 135.775H309.477Z" fill="#0A0A0A"/>
<path d="M217.296 164.077C215.471 164.077 213.995 163.476 212.87 162.281C211.731 161.085 211.164 159.474 211.164 157.462C211.164 155.449 211.727 153.819 212.852 152.624C213.963 151.438 215.447 150.847 217.292 150.847C218.772 150.847 220.035 151.244 221.077 152.038C222.119 152.832 222.769 153.981 223.032 155.491H220.598C220.385 154.66 219.989 154.027 219.417 153.598C218.841 153.164 218.135 152.947 217.296 152.947C216.171 152.947 215.286 153.349 214.641 154.147C213.995 154.946 213.672 156.054 213.672 157.466C213.672 158.879 213.99 160.001 214.631 160.795C215.272 161.588 216.157 161.985 217.296 161.985C218.172 161.985 218.924 161.722 219.551 161.201C220.178 160.679 220.556 159.954 220.69 159.031H223.087C222.935 160.642 222.303 161.889 221.202 162.766C220.113 163.643 218.809 164.081 217.292 164.081L217.296 164.077Z" fill="#0A0A0A"/>
<path d="M240.714 160.43L240.82 162.313C240.834 162.918 240.963 163.412 241.212 163.79H238.74C238.528 163.435 238.413 162.932 238.404 162.276L238.348 160.887C238.312 160.116 238.136 159.581 237.823 159.276C237.509 158.971 237.007 158.824 236.32 158.824H233.194V163.786H230.796V151.119H236.537C237.947 151.119 239.04 151.438 239.824 152.079C240.608 152.721 240.995 153.593 240.995 154.697C240.995 156.215 240.29 157.222 238.879 157.72C239.52 157.923 239.976 158.237 240.257 158.671C240.534 159.105 240.686 159.687 240.709 160.425L240.714 160.43ZM233.198 153.099V156.94H236.398C237.071 156.94 237.597 156.769 237.97 156.432C238.344 156.095 238.528 155.606 238.528 154.964C238.528 154.36 238.335 153.898 237.952 153.575C237.569 153.252 237.021 153.095 236.311 153.095H233.203L233.198 153.099Z" fill="#0A0A0A"/>
<path d="M258.16 151.129V153.28H251.231V156.266H257.501V158.33H251.231V161.64H258.123V163.791H248.828V151.124H258.156L258.16 151.129Z" fill="#0A0A0A"/>
<path d="M277.318 163.795H274.777L273.781 161.002H268.239L267.262 163.795H264.79L269.604 151.128H272.412L277.318 163.795ZM269.443 157.586L268.963 158.957H273.048L272.55 157.586C272.135 156.529 271.614 155.084 270.987 153.247C270.489 154.719 269.973 156.164 269.443 157.586Z" fill="#0A0A0A"/>
<path d="M281.794 151.128H292.311V153.279H288.258V163.795H285.843V153.279H281.79V151.128H281.794Z" fill="#0A0A0A"/>
<path d="M302.136 163.795H299.739V151.128H302.136V163.795Z" fill="#0A0A0A"/>
<path d="M316.655 157.674L318.892 151.128H321.381L316.849 163.795H314.041L309.403 151.128H311.962L314.253 157.674C314.788 159.285 315.189 160.605 315.461 161.62C315.77 160.448 316.167 159.132 316.651 157.674H316.655Z" fill="#0A0A0A"/>
<path d="M337.961 151.129V153.28H331.031V156.266H337.306V158.33H331.031V161.64H337.924V163.791H328.629V151.124H337.956L337.961 151.129Z" fill="#0A0A0A"/>
<path d="M214.097 184.25H211.699V171.583H214.097V184.25Z" fill="#0A0A0A"/>
<path d="M230.764 174.893V171.583H233.074V184.25H230.409L226.891 178.609C225.932 177.104 225.181 175.834 224.636 174.8C224.683 176.13 224.706 178.175 224.706 180.94V184.25H222.396V171.583H225.061L228.597 177.224C229.653 178.932 230.395 180.201 230.838 181.032C230.792 179.264 230.769 177.219 230.769 174.893H230.764Z" fill="#0A0A0A"/>
<path d="M246.966 184.536C245.14 184.536 243.665 183.935 242.54 182.74C241.401 181.544 240.834 179.933 240.834 177.921C240.834 175.908 241.396 174.278 242.521 173.083C243.632 171.897 245.117 171.306 246.961 171.306C248.441 171.306 249.704 171.703 250.746 172.497C251.788 173.291 252.439 174.44 252.701 175.95H250.267C250.055 175.119 249.658 174.486 249.087 174.057C248.51 173.623 247.805 173.406 246.966 173.406C245.841 173.406 244.956 173.808 244.31 174.606C243.665 175.405 243.342 176.513 243.342 177.925C243.342 179.338 243.66 180.459 244.301 181.253C244.942 182.047 245.827 182.444 246.966 182.444C247.842 182.444 248.593 182.181 249.22 181.66C249.847 181.138 250.225 180.413 250.359 179.49H252.757C252.605 181.101 251.973 182.348 250.871 183.225C249.783 184.102 248.478 184.54 246.961 184.54L246.966 184.536Z" fill="#0A0A0A"/>
<path d="M262.015 184.25H259.401V181.706H262.015V184.25Z" fill="#0A0A0A"/>
<path d="M135.9 0.535156L42.5305 184.014H116.969L210.772 0.535156H135.9Z" fill="#0A0A0A"/>
<path d="M94.1142 36.7074L75.833 0.535156H0.96106L56.8972 109.924L94.1142 36.7074Z" fill="#0A0A0A"/>
</g>
<defs>
<clipPath id="clip0_147_26">
<rect width="337" height="184" fill="white" transform="translate(0.96106 0.535156)"/>
</clipPath>
</defs>
</svg>
