<svg width="48" height="48" viewBox="0 0 48 48" fill="none" xmlns="http://www.w3.org/2000/svg">
<path d="M5.00006 14.0385V5.00006H14.0385V8.00001H8.00001V14.0385H5.00006ZM5.00006 43V33.9616H8.00001V40H14.0385V43H5.00006ZM33.9616 43V40H40V33.9616H43V43H33.9616ZM40 14.0385V8.00001H33.9616V5.00006H43V14.0385H40ZM34.4423 34.4423H37.1538V37.1538H34.4423V34.4423ZM34.4423 29.0193H37.1538V31.7308H34.4423V29.0193ZM31.7308 31.7308H34.4423V34.4423H31.7308V31.7308ZM29.0193 34.4423H31.7308V37.1538H29.0193V34.4423ZM26.3077 31.7308H29.0193V34.4423H26.3077V31.7308ZM31.7308 26.3077H34.4423V29.0193H31.7308V26.3077ZM29.0193 29.0193H31.7308V31.7308H29.0193V29.0193ZM26.3077 26.3077H29.0193V29.0193H26.3077V26.3077ZM37.1538 10.8462V21.6923H26.3077V10.8462H37.1538ZM21.6923 26.3077V37.1538H10.8462V26.3077H21.6923ZM21.6923 10.8462V21.6923H10.8462V10.8462H21.6923ZM19.3077 34.7692V28.6923H13.2308V34.7692H19.3077ZM19.3077 19.3077V13.2308H13.2308V19.3077H19.3077ZM34.7692 19.3077V13.2308H28.6923V19.3077H34.7692Z" fill="#F1F1F1"/>
</svg>
