<svg width="48" height="48" viewBox="0 0 48 48" fill="none" xmlns="http://www.w3.org/2000/svg">
<path d="M22.5001 42.5846V24.8615L7.00006 15.9V31.5846C7.00006 32.241 7.15904 32.8436 7.47701 33.3923C7.79494 33.941 8.23853 34.3795 8.80776 34.7077L22.5001 42.5846ZM25.5 42.5846L39.1923 34.7077C39.7615 34.3795 40.2051 33.941 40.523 33.3923C40.841 32.8436 41 32.241 41 31.5846V15.9L25.5 24.8615V42.5846ZM33.1423 16.9886L39.3692 13.3847L25.8077 5.58855C25.2385 5.26035 24.6359 5.09625 24 5.09625C23.3641 5.09625 22.7615 5.26035 22.1923 5.58855L17.8 8.1078L33.1423 16.9886ZM24 22.277L30.1423 18.7424L14.7924 9.85005L8.61926 13.3962L24 22.277Z" fill="#F1F1F1"/>
</svg>
